<!DOCTYPE svg PUBLIC "-//W3C//DTD SVG 1.1//EN" "http://www.w3.org/Graphics/SVG/1.1/DTD/svg11.dtd">
<!-- Uploaded to: SVG Repo, www.svgrepo.com, Transformed by: SVG Repo Mixer Tools -->
<svg fill="#373434" width="800px" height="800px" viewBox="0 0 24 24" id="bracket-square-2" data-name="Line Color" xmlns="http://www.w3.org/2000/svg" class="icon line-color" stroke="#373434">
<g id="SVGRepo_bgCarrier" stroke-width="0"/>
<g id="SVGRepo_tracerCarrier" stroke-linecap="round" stroke-linejoin="round"/>
<g id="SVGRepo_iconCarrier">
<path id="secondary" d="M14,17h1a1,1,0,0,0,1-1V13a1,1,0,0,1,1-1,1,1,0,0,1-1-1V8a1,1,0,0,0-1-1H14" style="fill: none; stroke: #2ca9bc; stroke-linecap: round; stroke-linejoin: round; stroke-width: 2;"/>
<path id="secondary-2" data-name="secondary" d="M10,7H9A1,1,0,0,0,8,8v3a1,1,0,0,1-1,1,1,1,0,0,1,1,1v3a1,1,0,0,0,1,1h1" style="fill: none; stroke: #2ca9bc; stroke-linecap: round; stroke-linejoin: round; stroke-width: 2;"/>
<rect id="primary" x="3" y="3" width="18" height="18" rx="1" style="fill: none; stroke: #393e46; stroke-linecap: round; stroke-linejoin: round; stroke-width: 2;"/>
</g>
</svg>